<mxfile host="app.diagrams.net" modified="2023-11-29T03:34:29.796Z" agent="Mozilla/5.0 (Windows NT 10.0; Win64; x64) AppleWebKit/537.36 (KHTML, like Gecko) Chrome/119.0.0.0 Safari/537.36 Edg/119.0.0.0" version="22.1.4" etag="-U7Sq4mTsozF2gY2zvAk" type="github">
  <diagram name="Page-1" id="z65TsHPgpahRelH1In6i">
    <mxGraphModel>
      <root>
        <mxCell id="0" />
        <mxCell id="1" parent="0" />
      </root>
    </mxGraphModel>
  </diagram>
</mxfile>
